<svg viewBox="0 0 400 320" aria-hidden="true" xmlns="http://www.w3.org/2000/svg" class="sl__fallback"><style>:where([data-hairline]){display:block;position:relative;aspect-ratio:5/4;touch-action:pan-y;user-select:none;-webkit-user-select:none;--hl-sw:var(--hairline-stroke,0.9);--hl-plate:var(--hairline-plate,#ffffff);--hl-hi:var(--hairline-hi,#232327);--hl-edge:var(--hairline-edge,#a4a4ac);--hl-mid:var(--hairline-mid,#c3c3c9);--hl-lo:var(--hairline-lo,#e0e0e4);}:where(.dark,[data-theme="dark"]) :where([data-hairline]){--hl-plate:var(--hairline-plate,#08090a);--hl-hi:var(--hairline-hi,#d0d6e0);--hl-edge:var(--hairline-edge,#5b5d64);--hl-mid:var(--hairline-mid,#3e3e44);--hl-lo:var(--hairline-lo,#29292d);}:where([data-hairline][data-hairline-theme="light"]){--hl-plate:var(--hairline-plate,#ffffff);--hl-hi:var(--hairline-hi,#232327);--hl-edge:var(--hairline-edge,#a4a4ac);--hl-mid:var(--hairline-mid,#c3c3c9);--hl-lo:var(--hairline-lo,#e0e0e4);}:where([data-hairline][data-hairline-theme="dark"]){--hl-plate:var(--hairline-plate,#08090a);--hl-hi:var(--hairline-hi,#d0d6e0);--hl-edge:var(--hairline-edge,#5b5d64);--hl-mid:var(--hairline-mid,#3e3e44);--hl-lo:var(--hairline-lo,#29292d);}:where([data-hairline]:focus-visible){outline:1.5px solid var(--hl-hi);outline-offset:2px}:where([data-hairline]&gt;svg){position:absolute;inset:0;width:100%;height:100%;display:block}:where([data-hairline]&gt;[data-hairline-live]){position:absolute;width:1px;height:1px;margin:-1px;padding:0;border:0;overflow:hidden;clip-path:inset(50%);white-space:nowrap}:where([data-hairline]&gt;svg) :where(path,polygon,ellipse,line){fill:var(--hl-plate);stroke:var(--hl-mid);stroke-width:var(--hl-sw);vector-effect:non-scaling-stroke;stroke-linejoin:round;stroke-linecap:round;transition:stroke 260ms cubic-bezier(0.5,0,0.1,1)}:where([data-hairline]&gt;svg) :where(.nf){fill:none}:where([data-hairline]&gt;svg) :where(.fo){stroke:none}:where([data-hairline]&gt;svg) :where(.sil){stroke:var(--hl-edge)}:where([data-hairline]&gt;svg) :where(.hi){stroke:var(--hl-hi)}:where([data-hairline]&gt;svg) :where(.lo){stroke:var(--hl-lo)}:where([data-hairline]&gt;svg) :where(.dash){stroke-dasharray:1 3}:where([data-hairline]&gt;svg) :where(.dot){stroke:none;fill:var(--hl-hi);transition:fill 260ms cubic-bezier(0.5,0,0.1,1)}:where([data-hairline]&gt;svg) :where(.dot.m){fill:var(--hl-edge)}:where([data-hairline]&gt;svg) :where(.dot.off){fill:var(--hl-lo)}:where([data-hairline]&gt;svg) :where(.ghost path){fill:none;stroke:var(--hl-mid)}</style><g><g><path class="sil hi" d="M56.24 165.21L57.22 162.35L60.03 159.92L167.3 97.99L171.5 96.37L176.45 95.8L181.41 96.37L185.61 97.99L339.97 187.11L342.78 189.54L343.76 192.4L343.76 196.03L342.78 198.89L339.97 201.31L232.7 263.24L228.5 264.86L223.55 265.43L218.59 264.86L214.39 263.24L60.03 174.12L57.22 171.7L56.24 168.84Z"></path><path class="nf lo" d="M341.36 192.4L340.56 194.73L338.27 196.71L231 258.64L227.58 259.96L223.55 260.42L219.51 259.96L216.09 258.64L61.73 169.52L59.44 167.54L58.64 165.21"></path><path class="nf" d="M162.72 102.9L331.47 200.33M226.16 127.45L308.58 175.03M308.58 175.03L302.04 178.81M302.04 178.81L219.62 131.22M219.62 131.22L226.16 127.45M229.43 133.11L286.99 166.34M316.43 179.56L324.27 184.09M324.27 184.09L317.73 187.87M317.73 187.87L309.88 183.34M309.88 183.34L316.43 179.56M329.51 187.11L337.36 191.65M337.36 191.65L330.81 195.42M330.81 195.42L322.97 190.89M322.97 190.89L329.51 187.11"></path><ellipse rx="2.96" ry="1.71" class="nf" cx="177.76" cy="102.52"></ellipse><ellipse rx="2.96" ry="1.71" class="nf" cx="185.61" cy="107.06"></ellipse><ellipse rx="2.96" ry="1.71" class="nf" cx="193.46" cy="111.59"></ellipse></g><path class="nf dash" d="M67.02 122.61L67.02 165.21M200.86 91.65L200.86 134.25M107.12 145.77L107.12 188.37"></path><g><path class="sil" d="M67.02 118.99L67.58 117.35L69.19 115.97L155.52 66.12L157.92 65.2L160.76 64.87L163.59 65.2L165.99 66.12L198.69 85L200.3 86.39L200.86 88.02L200.86 91.65L200.3 93.28L198.69 94.67L112.35 144.52L109.95 145.44L107.12 145.77L104.29 145.44L101.89 144.52L69.19 125.64L67.58 124.25L67.02 122.61Z"></path><path class="nf lo" d="M198.45 88.02L198.07 89.13L196.99 90.06L110.65 139.91L109.03 140.54L107.12 140.75L105.21 140.54L103.59 139.91L70.89 121.03L69.8 120.09L69.42 118.99"></path><path class="nf" d="M160.76 67.63L196.08 88.02M196.08 88.02L184.3 94.82M184.3 94.82L148.98 74.43M148.98 74.43L160.76 67.63M160.1 71.03L164.03 73.3M164.03 73.3L160.1 75.56M160.1 75.56L156.18 73.3M156.18 73.3L160.1 71.03M167.3 77.45L185.61 88.02M163.37 79.72L175.15 86.51M144.4 80.09L148.33 82.36M148.33 82.36L144.4 84.63M144.4 84.63L140.48 82.36M140.48 82.36L144.4 80.09M151.6 86.51L169.91 97.09M147.67 88.78L159.45 95.58M128.71 89.16L132.63 91.42M132.63 91.42L128.71 93.69M128.71 93.69L124.78 91.42M124.78 91.42L128.71 89.16M135.9 95.58L154.21 106.15M131.98 97.84L143.75 104.64M113.01 98.22L116.93 100.49M116.93 100.49L113.01 102.75M113.01 102.75L109.08 100.49M109.08 100.49L113.01 98.22M120.2 104.64L138.52 115.21M116.28 106.91L128.05 113.7M97.31 107.28L101.23 109.55M101.23 109.55L97.31 111.81M97.31 111.81L93.39 109.55M93.39 109.55L97.31 107.28M104.51 113.7L122.82 124.28M100.58 115.97L112.35 122.77M82.27 114.46L114.97 133.34M79.65 117.48L84.88 120.5M84.88 120.5L79.65 123.52M79.65 123.52L74.42 120.5M74.42 120.5L79.65 117.48M87.5 125.03L103.2 134.09"></path></g><path class="nf dash" d="M121.42 105.85L121.42 148.44M313.9 112.65L313.9 155.24M223.55 164.81L223.55 207.41"></path><g><path class="sil" d="M121.42 102.22L122.12 100.18L124.13 98.45L205.23 51.62L208.23 50.46L211.77 50.06L215.31 50.46L218.31 51.62L311.19 105.24L313.2 106.98L313.9 109.02L313.9 112.65L313.2 114.69L311.19 116.42L230.09 163.25L227.09 164.41L223.55 164.81L220.01 164.41L217.01 163.25L124.13 109.62L122.12 107.89L121.42 105.85Z"></path><path class="nf lo" d="M311.5 109.02L310.98 110.53L309.49 111.81L228.39 158.64L226.17 159.5L223.55 159.8L220.93 159.5L218.71 158.64L125.83 105.02L124.34 103.74L123.82 102.22"></path><path class="nf" d="M210.47 57.66L253.63 82.59M205.23 60.68L277.18 102.22M291.57 101.47L303.34 108.26M303.34 108.26L296.8 112.04M296.8 112.04L285.03 105.24M285.03 105.24L291.57 101.47M198.69 64.46L223.55 78.81M223.55 78.81L206.54 88.63M206.54 88.63L181.69 74.28M181.69 74.28L198.69 64.46M197.38 69.75L210.47 77.3M190.84 73.52L198.69 78.05M231.4 83.34L256.25 97.69M256.25 97.69L239.24 107.51M239.24 107.51L214.39 93.16M214.39 93.16L231.4 83.34M230.09 88.63L243.17 96.18M223.55 92.4L231.4 96.94M264.1 102.22L288.95 116.57M288.95 116.57L271.95 126.39M271.95 126.39L247.09 112.04M247.09 112.04L264.1 102.22M262.79 107.51L275.87 115.06M256.25 111.29L264.1 115.82M175.15 78.05L265.41 130.17M265.41 130.17L224.85 153.58M224.85 153.58L134.59 101.47M134.59 101.47L175.15 78.05M165.99 83.34L256.25 135.45M200 92.4L159.45 115.82M241.86 116.57L201.31 139.99M164.68 90.14L177.76 97.69M190.84 105.24L218.31 121.1M232.7 129.41L244.48 136.21M154.21 96.18L167.3 103.73M180.38 111.29L207.85 127.15M222.24 135.45L234.01 142.25M145.06 101.47L158.14 109.02M171.22 116.57L198.69 132.43M213.08 140.74L224.85 147.54"></path></g><path class="nf dash" d="M166.44 89.08L166.44 131.68M270.19 95.12L270.19 137.72M223.55 122.05L223.55 164.65"></path><g><path class="sil" d="M166.44 85.46L167 83.82L168.6 82.43L207.85 59.78L210.25 58.85L213.08 58.53L215.91 58.85L218.31 59.78L268.02 88.48L269.63 89.86L270.19 91.5L270.19 95.12L269.63 96.76L268.02 98.14L228.78 120.8L226.38 121.73L223.55 122.05L220.71 121.73L218.31 120.8L168.6 92.1L167 90.72L166.44 89.08Z"></path><path class="nf lo" d="M267.79 91.5L267.41 92.6L266.32 93.54L227.08 116.19L225.46 116.82L223.55 117.04L221.64 116.82L220.01 116.19L170.31 87.5L169.22 86.56L168.84 85.46"></path><path class="nf" d="M211.77 66.57L243.17 84.7M205.23 70.35L248.4 95.27M248.4 95.27L239.24 100.56M239.24 100.56L196.08 75.64M196.08 75.64L205.23 70.35M204.58 75.26L234.67 92.63M189.53 79.41L222.24 98.3M184.3 82.43L207.85 96.03M180.38 84.7L192.15 91.5M192.15 91.5L186.92 94.52M186.92 94.52L175.15 87.72M175.15 87.72L180.38 84.7M198.69 95.27L223.55 109.62M223.55 109.62L218.31 112.65M218.31 112.65L193.46 98.3M193.46 98.3L198.69 95.27"></path><path class="nf sil" d="M220.93 111.13L219.73 111.6L218.31 111.76L216.9 111.6L215.7 111.13L196.08 99.81L195.27 99.11L194.99 98.3L195.27 97.48L196.08 96.78L196.08 96.78L197.28 96.32L198.69 96.16L200.11 96.32L201.31 96.78L220.93 108.11L221.73 108.81L222.01 109.62L221.73 110.44L220.93 111.13Z"></path></g></g></svg>